<svg xmlns="http://www.w3.org/2000/svg" xmlns:xlink="http://www.w3.org/1999/xlink" width="215" height="149" viewBox="0 0 215 149">
  <defs>
    <clipPath id="clip-path">
      <rect width="215" height="149" fill="none"/>
    </clipPath>
  </defs>
  <g id="Repeat_Grid_1" data-name="Repeat Grid 1" clip-path="url(#clip-path)">
    <g transform="translate(-111 -970)">
      <circle id="Ellipse_2" data-name="Ellipse 2" cx="7.5" cy="7.5" r="7.5" transform="translate(111 980)" fill="#fff"/>
    </g>
    <g transform="translate(-68 -970)">
      <circle id="Ellipse_2-2" data-name="Ellipse 2" cx="7.5" cy="7.5" r="7.5" transform="translate(111 980)" fill="#fff"/>
    </g>
    <g transform="translate(-25 -970)">
      <circle id="Ellipse_2-3" data-name="Ellipse 2" cx="7.5" cy="7.5" r="7.5" transform="translate(111 980)" fill="#fff"/>
    </g>
    <g transform="translate(18 -970)">
      <circle id="Ellipse_2-4" data-name="Ellipse 2" cx="7.5" cy="7.5" r="7.5" transform="translate(111 980)" fill="#fff"/>
    </g>
    <g transform="translate(61 -970)">
      <circle id="Ellipse_2-5" data-name="Ellipse 2" cx="7.5" cy="7.5" r="7.5" transform="translate(111 980)" fill="#fff"/>
    </g>
    <g transform="translate(-111 -934)">
      <circle id="Ellipse_2-6" data-name="Ellipse 2" cx="7.5" cy="7.5" r="7.5" transform="translate(111 980)" fill="#fff"/>
    </g>
    <g transform="translate(-68 -934)">
      <circle id="Ellipse_2-7" data-name="Ellipse 2" cx="7.5" cy="7.5" r="7.5" transform="translate(111 980)" fill="#fff"/>
    </g>
    <g transform="translate(-25 -934)">
      <circle id="Ellipse_2-8" data-name="Ellipse 2" cx="7.5" cy="7.5" r="7.5" transform="translate(111 980)" fill="#fff"/>
    </g>
    <g transform="translate(18 -934)">
      <circle id="Ellipse_2-9" data-name="Ellipse 2" cx="7.5" cy="7.5" r="7.5" transform="translate(111 980)" fill="#fff"/>
    </g>
    <g transform="translate(61 -934)">
      <circle id="Ellipse_2-10" data-name="Ellipse 2" cx="7.5" cy="7.5" r="7.5" transform="translate(111 980)" fill="#fff"/>
    </g>
    <g transform="translate(-111 -898)">
      <circle id="Ellipse_2-11" data-name="Ellipse 2" cx="7.5" cy="7.5" r="7.5" transform="translate(111 980)" fill="#fff"/>
    </g>
    <g transform="translate(-68 -898)">
      <circle id="Ellipse_2-12" data-name="Ellipse 2" cx="7.5" cy="7.5" r="7.5" transform="translate(111 980)" fill="#fff"/>
    </g>
    <g transform="translate(-25 -898)">
      <circle id="Ellipse_2-13" data-name="Ellipse 2" cx="7.5" cy="7.5" r="7.5" transform="translate(111 980)" fill="#fff"/>
    </g>
    <g transform="translate(18 -898)">
      <circle id="Ellipse_2-14" data-name="Ellipse 2" cx="7.5" cy="7.5" r="7.5" transform="translate(111 980)" fill="#fff"/>
    </g>
    <g transform="translate(61 -898)">
      <circle id="Ellipse_2-15" data-name="Ellipse 2" cx="7.5" cy="7.5" r="7.5" transform="translate(111 980)" fill="#fff"/>
    </g>
    <g transform="translate(-111 -862)">
      <circle id="Ellipse_2-16" data-name="Ellipse 2" cx="7.5" cy="7.5" r="7.5" transform="translate(111 980)" fill="#fff"/>
    </g>
    <g transform="translate(-68 -862)">
      <circle id="Ellipse_2-17" data-name="Ellipse 2" cx="7.5" cy="7.5" r="7.5" transform="translate(111 980)" fill="#fff"/>
    </g>
    <g transform="translate(-25 -862)">
      <circle id="Ellipse_2-18" data-name="Ellipse 2" cx="7.5" cy="7.5" r="7.5" transform="translate(111 980)" fill="#fff"/>
    </g>
    <g transform="translate(18 -862)">
      <circle id="Ellipse_2-19" data-name="Ellipse 2" cx="7.5" cy="7.5" r="7.5" transform="translate(111 980)" fill="#fff"/>
    </g>
    <g transform="translate(61 -862)">
      <circle id="Ellipse_2-20" data-name="Ellipse 2" cx="7.5" cy="7.5" r="7.5" transform="translate(111 980)" fill="#fff"/>
    </g>
  </g>
</svg>
