<svg xmlns="http://www.w3.org/2000/svg" xmlns:xlink="http://www.w3.org/1999/xlink" width="418" height="402" viewBox="0 0 418 402">
  <defs>
    <filter id="Rectangle_5" x="9" y="0" width="409" height="402" filterUnits="userSpaceOnUse">
      <feOffset dx="9" dy="9" input="SourceAlpha"/>
      <feGaussianBlur stdDeviation="9" result="blur"/>
      <feFlood flood-opacity="0.161"/>
      <feComposite operator="in" in2="blur"/>
      <feComposite in="SourceGraphic"/>
    </filter>
  </defs>
  <g id="Group_8" data-name="Group 8" transform="translate(-1100 -350)">
    <g transform="matrix(1, 0, 0, 1, 1100, 350)" filter="url(#Rectangle_5)">
      <rect id="Rectangle_5-2" data-name="Rectangle 5" width="355" height="348" rx="31" transform="translate(27 18)" fill="#fff"/>
    </g>
    <g id="Hero_illustration" data-name="Hero illustration" transform="translate(1100 435)">
      <g id="Group_2" data-name="Group 2" transform="translate(-1121 -240)">
        <g id="Ellipse_1" data-name="Ellipse 1" transform="translate(1121 388)" fill="#fff" stroke="#d5d5d5" stroke-width="4">
          <circle cx="27" cy="27" r="27" stroke="none"/>
          <circle cx="27" cy="27" r="25" fill="none"/>
        </g>
        <rect id="Rectangle_6" data-name="Rectangle 6" width="235" height="13" rx="6.5" transform="translate(1221 393)" fill="#f9dba5"/>
        <rect id="Rectangle_7" data-name="Rectangle 7" width="60" height="13" rx="6.5" transform="translate(1221 417)" fill="#f9dba5"/>
        <rect id="Rectangle_8" data-name="Rectangle 8" width="13" height="13" rx="6.5" transform="translate(1443 417)" fill="#f9dba5"/>
        <rect id="Rectangle_9" data-name="Rectangle 9" width="13" height="13" rx="6.5" transform="translate(1425 417)" fill="#f9dba5"/>
      </g>
      <g id="Group_1" data-name="Group 1" transform="translate(-1121 -314)">
        <g id="Ellipse_1-2" data-name="Ellipse 1" transform="translate(1121 388)" fill="#fff" stroke="#d5d5d5" stroke-width="4">
          <circle cx="27" cy="27" r="27" stroke="none"/>
          <circle cx="27" cy="27" r="25" fill="none"/>
        </g>
        <rect id="Rectangle_6-2" data-name="Rectangle 6" width="235" height="13" rx="6.5" transform="translate(1221 393)" fill="#e9d5f5"/>
        <rect id="Rectangle_7-2" data-name="Rectangle 7" width="60" height="13" rx="6.5" transform="translate(1221 417)" fill="#e9d5f5"/>
        <rect id="Rectangle_8-2" data-name="Rectangle 8" width="13" height="13" rx="6.5" transform="translate(1443 417)" fill="#e9d5f5"/>
        <rect id="Rectangle_9-2" data-name="Rectangle 9" width="13" height="13" rx="6.5" transform="translate(1425 417)" fill="#e9d5f5"/>
      </g>
      <g id="Group_3" data-name="Group 3" transform="translate(-1121 -388)">
        <circle id="Ellipse_1-3" data-name="Ellipse 1" cx="27" cy="27" r="27" transform="translate(1121 388)" fill="#1fc41f"/>
        <path id="Path_3" data-name="Path 3" d="M2274.566,339.9c2.075,2.027,6.225,5.721,6.225,5.721l13.709-13.193" transform="translate(-1136.533 75.967)" fill="none" stroke="#fff" stroke-width="6"/>
        <rect id="Rectangle_6-3" data-name="Rectangle 6" width="235" height="13" rx="6.5" transform="translate(1221 393)" fill="#b2ddcc"/>
        <rect id="Rectangle_7-3" data-name="Rectangle 7" width="60" height="13" rx="6.5" transform="translate(1221 417)" fill="#b2ddcc"/>
        <rect id="Rectangle_8-3" data-name="Rectangle 8" width="13" height="13" rx="6.5" transform="translate(1443 417)" fill="#b2ddcc"/>
        <rect id="Rectangle_9-3" data-name="Rectangle 9" width="13" height="13" rx="6.5" transform="translate(1425 417)" fill="#b2ddcc"/>
      </g>
    </g>
  </g>
</svg>
